<?xml version="1.0" encoding="utf-8"?>
<!-- Generator: Adobe Illustrator 19.0.0, SVG Export Plug-In . SVG Version: 6.00 Build 0)  -->
<svg version="1.1" xmlns="http://www.w3.org/2000/svg" xmlns:xlink="http://www.w3.org/1999/xlink" x="0px" y="0px"
	 viewBox="0 0 400 400" style="enable-background:new 0 0 400 400;" xml:space="preserve">
<style type="text/css">
	.st0{fill:none;stroke:#A7A9AC;stroke-miterlimit:10;}
	.st1{fill:none;stroke:#000000;stroke-miterlimit:10;}
	.st2{font-family:'Roboto-Regular';}
	.st3{font-size:10px;}
	.st4{letter-spacing:-1;}
	.st5{fill:none;stroke:#00ACC1;stroke-width:2.5;stroke-miterlimit:10;}
</style>
<g id="Layer_1">
	<line id="XMLID_22_" class="st0" x1="16.8" y1="38.8" x2="376.1" y2="38.8"/>
	<line id="XMLID_23_" class="st0" x1="17.2" y1="59.6" x2="376.6" y2="59.6"/>
	<line id="XMLID_24_" class="st0" x1="17.2" y1="80.9" x2="376.6" y2="80.9"/>
	<line id="XMLID_25_" class="st0" x1="17.2" y1="102.2" x2="376.6" y2="102.2"/>
	<line id="XMLID_29_" class="st0" x1="17" y1="123" x2="376.3" y2="123"/>
	<line id="XMLID_28_" class="st0" x1="16.8" y1="143.8" x2="376.1" y2="143.8"/>
	<line id="XMLID_27_" class="st0" x1="16.8" y1="165.1" x2="376.1" y2="165.1"/>
	<line id="XMLID_26_" class="st0" x1="16.8" y1="186.4" x2="376.1" y2="186.4"/>
	<line id="XMLID_33_" class="st0" x1="17.2" y1="206.7" x2="376.6" y2="206.7"/>
	<line id="XMLID_32_" class="st0" x1="16.8" y1="227.4" x2="376.1" y2="227.4"/>
	<line id="XMLID_31_" class="st0" x1="16.8" y1="248.8" x2="376.1" y2="248.8"/>
	<line id="XMLID_30_" class="st0" x1="16.8" y1="270.1" x2="376.4" y2="270.1"/>
	<line id="XMLID_37_" class="st0" x1="16.5" y1="292" x2="375.9" y2="292"/>
	<line id="XMLID_36_" class="st0" x1="16.9" y1="312.8" x2="376.3" y2="312.8"/>
	<line id="XMLID_35_" class="st0" x1="16.9" y1="334.1" x2="376.3" y2="334.1"/>
	<line id="XMLID_34_" class="st0" x1="16.9" y1="355.4" x2="376.3" y2="355.4"/>
	<line id="XMLID_20_" class="st0" x1="38.1" y1="376.5" x2="38.1" y2="18.2"/>
	<line id="XMLID_19_" class="st0" x1="58.9" y1="376.9" x2="58.9" y2="17.7"/>
	<line id="XMLID_18_" class="st0" x1="80.3" y1="376.9" x2="80.3" y2="17.7"/>
	<line id="XMLID_17_" class="st0" x1="101.6" y1="376.9" x2="101.6" y2="17.7"/>
	<line id="XMLID_16_" class="st0" x1="122.4" y1="376.5" x2="122.4" y2="17.9"/>
	<line id="XMLID_15_" class="st0" x1="143.1" y1="376.7" x2="143.1" y2="18.1"/>
	<line id="XMLID_14_" class="st0" x1="164.5" y1="376.7" x2="164.5" y2="18.1"/>
	<line id="XMLID_13_" class="st0" x1="185.8" y1="376.7" x2="185.8" y2="18.1"/>
	<line id="XMLID_12_" class="st0" x1="206" y1="376.9" x2="206" y2="17.7"/>
	<line id="XMLID_11_" class="st0" x1="226.8" y1="376.5" x2="226.8" y2="18.1"/>
	<line id="XMLID_10_" class="st0" x1="248.1" y1="376.5" x2="248.1" y2="18.1"/>
	<line id="XMLID_9_" class="st0" x1="269.5" y1="376.5" x2="269.5" y2="18.1"/>
	<line id="XMLID_8_" class="st0" x1="291.4" y1="376.5" x2="291.4" y2="18.4"/>
	<line id="XMLID_7_" class="st0" x1="312.1" y1="376.5" x2="312.1" y2="18"/>
	<line id="XMLID_6_" class="st0" x1="333.5" y1="376.5" x2="333.5" y2="18"/>
	<line id="XMLID_5_" class="st0" x1="354.8" y1="376.5" x2="354.8" y2="18"/>
	<rect id="XMLID_1_" x="16.8" y="18.1" class="st1" width="359.4" height="358.3"/>
</g>
<g id="Numbers_and_lines">
	<text id="XMLID_21_" transform="matrix(1 0 0 1 45.6662 31.8335)" class="st2 st3">1</text>
	<text id="XMLID_38_" transform="matrix(1 0 0 1 66.3328 31.8335)" class="st2 st3">2</text>
	<text id="XMLID_39_" transform="matrix(1 0 0 1 88.1662 31.8335)" class="st2 st3">3</text>
	<text id="XMLID_40_" transform="matrix(1 0 0 1 108.8328 31.8335)" class="st2 st3">4</text>
	<text id="XMLID_41_" transform="matrix(1 0 0 1 129.6662 31.8335)" class="st2 st3">5</text>
	<text id="XMLID_42_" transform="matrix(1 0 0 1 150.8328 31.8335)" class="st2 st3">6</text>
	<text id="XMLID_43_" transform="matrix(1 0 0 1 172.8328 31.8335)" class="st2 st3">7</text>
	<text id="XMLID_44_" transform="matrix(1 0 0 1 192.9995 31.8335)" class="st2 st3">8</text>
	<text id="XMLID_45_" transform="matrix(1 0 0 1 213.4995 31.8335)" class="st2 st3">9</text>
	<text id="XMLID_46_" transform="matrix(1 0 0 1 232.1662 31.8335)" class="st2 st3 st4">10</text>
	<text id="XMLID_47_" transform="matrix(1 0 0 1 253.6662 31.8335)" class="st2 st3 st4">11</text>
	<text id="XMLID_48_" transform="matrix(1 0 0 1 274.9995 31.8335)" class="st2 st3 st4">12</text>
	<text id="XMLID_49_" transform="matrix(1 0 0 1 296.3328 31.8335)" class="st2 st3 st4">13</text>
	<text id="XMLID_50_" transform="matrix(1 0 0 1 317.4995 31.8335)" class="st2 st3 st4">14</text>
	<text id="XMLID_51_" transform="matrix(1 0 0 1 338.6662 31.8335)" class="st2 st3 st4">15</text>
	<text id="XMLID_52_" transform="matrix(1 0 0 1 24.8328 52.3335)" class="st2 st3">1</text>
	<text id="XMLID_53_" transform="matrix(1 0 0 1 24.8327 73.6668)" class="st2 st3">2</text>
	<text id="XMLID_54_" transform="matrix(1 0 0 1 24.8328 95.1668)" class="st2 st3">3</text>
	<text id="XMLID_55_" transform="matrix(1 0 0 1 24.8325 116.1668)" class="st2 st3">4</text>
	<text id="XMLID_56_" transform="matrix(1 0 0 1 24.8326 136.8335)" class="st2 st3">5</text>
	<text id="XMLID_57_" transform="matrix(1 0 0 1 23.9998 158.1665)" class="st2 st3 st4">6</text>
	<text id="XMLID_58_" transform="matrix(1 0 0 1 24 179.3335)" class="st2 st3">7</text>
	<text id="XMLID_59_" transform="matrix(1 0 0 1 24 199.9995)" class="st2 st3">8</text>
	<text id="XMLID_60_" transform="matrix(1 0 0 1 24.8327 219.9585)" class="st2 st3">9</text>
	<text id="XMLID_61_" transform="matrix(1 0 0 1 21.8537 241.833)" class="st2 st3 st4">10</text>
	<text id="XMLID_62_" transform="matrix(1 0 0 1 22.5413 262.833)" class="st2 st3 st4">11</text>
	<text id="XMLID_63_" transform="matrix(1 0 0 1 22.5414 284.2705)" class="st2 st3 st4">12</text>
	<text id="XMLID_64_" transform="matrix(1 0 0 1 22.5415 305.8955)" class="st2 st3 st4">13</text>
	<text id="XMLID_65_" transform="matrix(1 0 0 1 22.5415 327.1455)" class="st2 st3 st4">14</text>
	<text id="XMLID_66_" transform="matrix(1 0 0 1 22.5417 347.833)" class="st2 st3 st4">15</text>
	<polyline id="XMLID_68_" class="st5" points="58.9,38.8 58.9,59.6 38.1,59.6 	"/>
	<polyline id="XMLID_67_" class="st5" points="80.3,38.8 80.3,80.9 38.1,80.9 	"/>
	<polyline id="XMLID_69_" class="st5" points="101,38.8 101,101.7 38.1,101.7 	"/>
	<polyline id="XMLID_70_" class="st5" points="122.1,38.8 122.1,122.7 38.1,122.7 	"/>
	<polyline id="XMLID_71_" class="st5" points="143,38.8 143,143.6 38.1,143.8 	"/>
	<polyline id="XMLID_72_" class="st5" points="164.5,38.8 164.5,165.1 38.1,165.1 	"/>
	<polyline id="XMLID_73_" class="st5" points="185.3,38.8 185.3,185.9 38.1,185.9 	"/>
	<polyline id="XMLID_74_" class="st5" points="206,38.8 206,205.7 38.1,205.7 	"/>
	<polyline id="XMLID_75_" class="st5" points="226.8,38.8 226.8,227.4 38.1,227.4 	"/>
	<polyline id="XMLID_76_" class="st5" points="248.1,38.8 248.1,248.8 38.1,248.8 	"/>
	<polyline id="XMLID_77_" class="st5" points="269.5,38.8 269.5,270.1 38.1,270.1 	"/>
	<polyline id="XMLID_78_" class="st5" points="291.4,38.8 291.4,292 38.1,292 	"/>
	<polyline id="XMLID_79_" class="st5" points="312.1,38.8 312.1,312.8 38.1,312.8 	"/>
	<polyline id="XMLID_80_" class="st5" points="333.5,38.8 333.5,334.1 38.1,334.1 	"/>
	<polyline id="XMLID_81_" class="st5" points="354.8,38.8 354.8,355.6 38.1,355.6 	"/>
</g>
</svg>
